<?xml version="1.0" encoding="utf-8"?>
<!-- Generator: Adobe Illustrator 21.1.0, SVG Export Plug-In . SVG Version: 6.00 Build 0)  -->
<svg version="1.1" id="Layer_1" xmlns="http://www.w3.org/2000/svg" xmlns:xlink="http://www.w3.org/1999/xlink" x="0px" y="0px"
	 viewBox="0 0 144 43.2" style="enable-background:new 0 0 144 43.2;" xml:space="preserve">
<style type="text/css">
	.st0{fill:#1FB04C;}
	.st1{fill:none;}
	.st2{enable-background:new    ;}
	.st3{fill:#FFFFFF;}
</style>
<g id="W">
	<polyline class="st0" points="7.9,7.7 30.4,7.7 19.6,38.4 	"/>
	<polygon class="st0" points="33.2,7.7 40.4,7.7 30.1,38.4 25.7,28.5 	"/>
</g>
<g id="A_Division">
	<rect x="37" y="31.4" class="st1" width="104.7" height="10.7"/>
	<g class="st2">
		<path class="st3" d="M38.2,31.6h1.6l1.3,4.9c0.1,0.3,0.1,0.5,0.2,0.7c0.1,0.2,0.2,0.4,0.3,0.6h-2c0.2-0.2,0.3-0.4,0.3-0.6
			c0-0.1,0-0.2-0.1-0.5l0,0l-0.2-0.7h-1.3l-0.2,0.7c-0.1,0.3-0.1,0.5-0.1,0.6c0,0.1,0.1,0.3,0.2,0.6h-1.4c0.1-0.2,0.3-0.4,0.3-0.6
			c0-0.1,0.1-0.3,0.2-0.7l0.9-3.6c0.1-0.3,0.1-0.6,0.1-0.6C38.5,32,38.4,31.8,38.2,31.6z M39.5,35L39,33.1L38.6,35H39.5z"/>
		<path class="st3" d="M43.1,31.6h1.5c0.5,0,0.8,0,1,0.1c0.3,0.1,0.6,0.2,0.9,0.5c0.6,0.6,0.9,1.4,0.9,2.5c0,0.5-0.1,1.1-0.3,1.5
			c-0.2,0.6-0.5,1-0.9,1.2c-0.2,0.1-0.4,0.2-0.7,0.3c-0.2,0-0.4,0-0.8,0h-1.6c0.1-0.1,0.2-0.3,0.3-0.6c0-0.1,0-0.3,0-0.7v-3.7
			c0-0.5,0-0.8-0.1-0.9C43.3,31.8,43.2,31.7,43.1,31.6z M44.6,32.6v4.1c0.1,0.1,0.2,0.1,0.4,0.1c0.4,0,0.7-0.3,0.9-0.8
			c0.1-0.4,0.2-0.8,0.2-1.3c0-0.5-0.1-0.9-0.2-1.3c-0.2-0.6-0.5-0.8-0.9-0.8C44.9,32.5,44.8,32.5,44.6,32.6z"/>
		<path class="st3" d="M49.5,37.7h-1.7c0.1-0.2,0.2-0.4,0.2-0.6c0-0.1,0-0.3,0-0.6v-1.9c0-0.4,0-0.6,0-0.6c0-0.2-0.1-0.4-0.2-0.6h1
			c0.1,0,0.3,0,0.4-0.1v3.2c0,0.4,0,0.6,0,0.6C49.3,37.3,49.4,37.5,49.5,37.7z M48.6,31.3c0.2,0,0.4,0.1,0.5,0.3
			c0.1,0.2,0.2,0.4,0.2,0.6c0,0.2-0.1,0.4-0.2,0.6c-0.1,0.2-0.3,0.3-0.5,0.3c-0.2,0-0.4-0.1-0.5-0.3C48,32.6,48,32.4,48,32.2
			c0-0.2,0.1-0.4,0.2-0.6C48.2,31.4,48.4,31.3,48.6,31.3z"/>
		<path class="st3" d="M52.1,33.4h1l-1.2,4.5c-0.4-0.1-0.6-0.3-0.8-0.5c-0.2-0.2-0.3-0.5-0.4-0.9l-0.6-2.3c-0.1-0.3-0.2-0.6-0.4-0.8
			h1c0.2,0,0.3-0.1,0.4-0.2l0.7,2.8l0.4-1.7c0.1-0.2,0.1-0.4,0.1-0.5C52.2,33.7,52.2,33.6,52.1,33.4z"/>
		<path class="st3" d="M54.8,37.7h-1.7c0.1-0.2,0.2-0.4,0.2-0.6c0-0.1,0-0.3,0-0.6v-1.9c0-0.4,0-0.6,0-0.6c0-0.2-0.1-0.4-0.2-0.6h1
			c0.1,0,0.3,0,0.4-0.1v3.2c0,0.4,0,0.6,0,0.6C54.6,37.3,54.7,37.5,54.8,37.7z M54,31.3c0.2,0,0.4,0.1,0.5,0.3
			c0.1,0.2,0.2,0.4,0.2,0.6c0,0.2-0.1,0.4-0.2,0.6c-0.1,0.2-0.3,0.3-0.5,0.3c-0.2,0-0.4-0.1-0.5-0.3c-0.1-0.2-0.2-0.4-0.2-0.6
			c0-0.2,0.1-0.4,0.2-0.6C53.6,31.4,53.7,31.3,54,31.3z"/>
		<path class="st3" d="M57.7,33.5v1c-0.3-0.3-0.5-0.4-0.8-0.4c-0.3,0-0.4,0.1-0.4,0.3c0,0.1,0.1,0.2,0.2,0.3c0,0,0.2,0.1,0.4,0.2
			c0.3,0.1,0.6,0.3,0.8,0.5c0.2,0.2,0.3,0.6,0.3,1c0,0.5-0.1,0.9-0.4,1.1c-0.3,0.3-0.7,0.4-1.2,0.4c-0.3,0-0.7-0.1-1.1-0.2l-0.1-1.1
			c0.4,0.3,0.8,0.5,1.1,0.5s0.5-0.1,0.5-0.4c0-0.1-0.1-0.2-0.2-0.3c-0.1,0-0.2-0.1-0.3-0.2c-0.4-0.2-0.6-0.3-0.8-0.5
			c-0.2-0.2-0.3-0.5-0.3-0.9c0-0.4,0.1-0.8,0.4-1c0.2-0.3,0.6-0.4,1-0.4C57,33.3,57.3,33.3,57.7,33.5z"/>
		<path class="st3" d="M60.1,37.7h-1.7c0.1-0.2,0.2-0.4,0.2-0.6c0-0.1,0-0.3,0-0.6v-1.9c0-0.4,0-0.6,0-0.6c0-0.2-0.1-0.4-0.2-0.6h1
			c0.1,0,0.3,0,0.4-0.1v3.2c0,0.4,0,0.6,0,0.6C59.9,37.3,60,37.5,60.1,37.7z M59.2,31.3c0.2,0,0.4,0.1,0.5,0.3
			c0.1,0.2,0.2,0.4,0.2,0.6c0,0.2-0.1,0.4-0.2,0.6c-0.1,0.2-0.3,0.3-0.5,0.3c-0.2,0-0.4-0.1-0.5-0.3c-0.1-0.2-0.2-0.4-0.2-0.6
			c0-0.2,0.1-0.4,0.2-0.6C58.8,31.4,59,31.3,59.2,31.3z"/>
		<path class="st3" d="M62.4,33.3c0.6,0,1.1,0.2,1.4,0.7c0.3,0.4,0.5,0.9,0.5,1.5c0,0.7-0.2,1.2-0.5,1.6c-0.4,0.5-0.9,0.7-1.5,0.7
			c-0.6,0-1.1-0.2-1.4-0.7c-0.3-0.4-0.5-0.9-0.5-1.5c0-0.7,0.2-1.2,0.5-1.6C61.3,33.5,61.8,33.3,62.4,33.3z M62,34.2
			c-0.3,0.1-0.4,0.3-0.4,0.7c0,0.2,0,0.4,0.1,0.6c0.2,0.9,0.5,1.4,0.9,1.4c0.2,0,0.3-0.1,0.4-0.2s0.2-0.2,0.2-0.4
			c0-0.2,0-0.5-0.1-0.8c-0.2-0.9-0.5-1.4-0.9-1.4C62.1,34.2,62.1,34.2,62,34.2z"/>
		<path class="st3" d="M66.1,33.3v0.5c0.3-0.3,0.5-0.5,0.9-0.5c0.4,0,0.6,0.1,0.9,0.4c0.1,0.2,0.2,0.4,0.3,0.6c0,0.2,0,0.4,0,0.7
			v1.5c0,0.4,0,0.6,0,0.6c0,0.2,0.1,0.4,0.2,0.6h-1.7c0.1-0.2,0.2-0.4,0.2-0.6c0-0.1,0-0.3,0-0.6V35c0-0.5-0.1-0.7-0.4-0.7
			c-0.3,0-0.4,0.2-0.4,0.7v1.5c0,0.4,0,0.6,0,0.6c0,0.2,0.1,0.4,0.2,0.6h-1.7c0.1-0.2,0.2-0.4,0.2-0.6c0-0.1,0-0.3,0-0.6v-1.9
			c0-0.4,0-0.6,0-0.6c0-0.2-0.1-0.4-0.2-0.6h0.9C65.8,33.4,65.9,33.4,66.1,33.3z"/>
		<path class="st3" d="M72.1,33.3c0.6,0,1.1,0.2,1.4,0.7c0.3,0.4,0.5,0.9,0.5,1.5c0,0.7-0.2,1.2-0.5,1.6c-0.4,0.5-0.9,0.7-1.5,0.7
			c-0.6,0-1.1-0.2-1.4-0.7c-0.3-0.4-0.5-0.9-0.5-1.5c0-0.7,0.2-1.2,0.5-1.6C71,33.5,71.4,33.3,72.1,33.3z M71.7,34.2
			c-0.3,0.1-0.4,0.3-0.4,0.7c0,0.2,0,0.4,0.1,0.6c0.2,0.9,0.5,1.4,0.9,1.4c0.2,0,0.3-0.1,0.4-0.2s0.2-0.2,0.2-0.4
			c0-0.2,0-0.5-0.1-0.8c-0.2-0.9-0.5-1.4-0.9-1.4C71.8,34.2,71.7,34.2,71.7,34.2z"/>
		<path class="st3" d="M75.8,34.3v2.2c0,0.4,0,0.6,0,0.6c0,0.2,0.1,0.4,0.2,0.6h-1.7c0.1-0.2,0.2-0.4,0.2-0.6c0-0.1,0-0.3,0-0.6
			v-2.2h-0.4l0.4-0.9v-0.3c0-0.5,0.1-0.9,0.4-1.2c0.3-0.3,0.7-0.5,1.2-0.5c0.2,0,0.5,0,0.7,0.1l-0.5,1c-0.1-0.1-0.2-0.2-0.3-0.2
			c-0.1,0-0.2,0.1-0.3,0.2c0,0.1,0,0.2,0,0.4v0.4h0.8v1.1c-0.1-0.1-0.2-0.2-0.4-0.2H75.8z"/>
		<path class="st3" d="M79.2,31.6h1.6l1.3,4.9c0.1,0.3,0.1,0.5,0.2,0.7c0.1,0.2,0.2,0.4,0.3,0.6h-2c0.2-0.2,0.3-0.4,0.3-0.6
			c0-0.1,0-0.2-0.1-0.5l0,0l-0.2-0.7h-1.3l-0.2,0.7c-0.1,0.3-0.1,0.5-0.1,0.6c0,0.1,0.1,0.3,0.2,0.6h-1.4c0.1-0.2,0.3-0.4,0.3-0.6
			c0-0.1,0.1-0.3,0.2-0.7l0.9-3.6c0.1-0.3,0.1-0.6,0.1-0.6C79.5,32,79.4,31.8,79.2,31.6z M80.5,35L80,33.1L79.5,35H80.5z"/>
		<path class="st3" d="M84.4,37.7h-1.7c0.1-0.2,0.2-0.4,0.2-0.6c0-0.1,0-0.3,0-0.6v-3.7c0-0.4,0-0.6,0-0.6c0-0.2-0.1-0.4-0.2-0.6h1
			c0.1,0,0.3,0,0.4-0.1v5.1c0,0.4,0,0.6,0,0.6C84.2,37.4,84.2,37.5,84.4,37.7z"/>
		<path class="st3" d="M86.4,37.7h-1.7c0.1-0.2,0.2-0.4,0.2-0.6c0-0.1,0-0.3,0-0.6v-3.7c0-0.4,0-0.6,0-0.6c0-0.2-0.1-0.4-0.2-0.6h1
			c0.1,0,0.3,0,0.4-0.1v5.1c0,0.4,0,0.6,0,0.6C86.2,37.4,86.3,37.5,86.4,37.7z"/>
		<path class="st3" d="M90.2,36.5l-0.3,1.1c-0.3,0.2-0.7,0.3-1.2,0.3c-0.7,0-1.2-0.2-1.5-0.7c-0.3-0.4-0.5-0.9-0.5-1.6
			c0-0.6,0.2-1.1,0.4-1.6c0.3-0.5,0.8-0.7,1.4-0.7c0.4,0,0.7,0.1,0.9,0.3c0.2,0.2,0.4,0.5,0.5,0.9c0.1,0.3,0.1,0.6,0.1,1.1H88
			c0,0.3,0,0.6,0.1,0.8c0.2,0.4,0.5,0.6,0.9,0.6C89.3,36.9,89.7,36.8,90.2,36.5z M88.1,34.8H89c0-0.5-0.2-0.7-0.4-0.7
			C88.3,34.1,88.1,34.3,88.1,34.8z"/>
		<path class="st3" d="M91.8,33.3v0.5c0.3-0.3,0.5-0.5,0.9-0.5c0.4,0,0.6,0.1,0.9,0.4c0.1,0.2,0.2,0.4,0.3,0.6c0,0.2,0,0.4,0,0.7
			v1.5c0,0.4,0,0.6,0,0.6c0,0.2,0.1,0.4,0.2,0.6h-1.7c0.1-0.2,0.2-0.4,0.2-0.6c0-0.1,0-0.3,0-0.6V35c0-0.5-0.1-0.7-0.4-0.7
			c-0.3,0-0.4,0.2-0.4,0.7v1.5c0,0.4,0,0.6,0,0.6c0,0.2,0.1,0.4,0.2,0.6h-1.7c0.1-0.2,0.2-0.4,0.2-0.6c0-0.1,0-0.3,0-0.6v-1.9
			c0-0.4,0-0.6,0-0.6c0-0.2-0.1-0.4-0.2-0.6h0.9C91.5,33.4,91.7,33.4,91.8,33.3z"/>
		<path class="st3" d="M100.1,36.3l-0.3,1.3c-0.4,0.2-0.8,0.2-1.3,0.2c-0.3,0-0.6,0-0.8-0.1c-0.2-0.1-0.5-0.2-0.7-0.4
			c-0.4-0.3-0.6-0.7-0.8-1.2c-0.2-0.4-0.2-0.9-0.2-1.4c0-0.4,0.1-0.9,0.2-1.3c0.1-0.5,0.3-0.8,0.6-1.1c0.5-0.5,1.1-0.8,1.8-0.8
			c0.3,0,0.7,0,1,0.1l0.1,1.3c-0.4-0.3-0.7-0.5-1.1-0.5c-0.8,0-1.2,0.7-1.2,2.1c0,0.6,0.1,1.1,0.3,1.5c0.3,0.6,0.6,0.8,1.2,0.8
			C99.1,36.9,99.6,36.7,100.1,36.3z"/>
		<path class="st3" d="M102.3,33.3c0.6,0,1.1,0.2,1.4,0.7c0.3,0.4,0.5,0.9,0.5,1.5c0,0.7-0.2,1.2-0.5,1.6c-0.4,0.5-0.9,0.7-1.5,0.7
			c-0.6,0-1.1-0.2-1.4-0.7c-0.3-0.4-0.5-0.9-0.5-1.5c0-0.7,0.2-1.2,0.5-1.6C101.2,33.5,101.7,33.3,102.3,33.3z M101.9,34.2
			c-0.3,0.1-0.4,0.3-0.4,0.7c0,0.2,0,0.4,0.1,0.6c0.2,0.9,0.5,1.4,0.9,1.4c0.2,0,0.3-0.1,0.4-0.2s0.2-0.2,0.2-0.4
			c0-0.2,0-0.5-0.1-0.8c-0.2-0.9-0.5-1.4-0.9-1.4C102,34.2,101.9,34.2,101.9,34.2z"/>
		<path class="st3" d="M107,33.3v1.2c-0.2-0.1-0.3-0.1-0.4-0.1c-0.2,0-0.4,0.1-0.5,0.2c-0.1,0.1-0.1,0.3-0.1,0.5v1.3
			c0,0.4,0,0.6,0,0.6c0,0.2,0.1,0.4,0.2,0.6h-1.7c0.1-0.2,0.2-0.4,0.2-0.6c0-0.1,0-0.3,0-0.6v-1.9c0-0.4,0-0.6,0-0.6
			c0-0.2-0.1-0.4-0.2-0.6h0.9c0.1,0,0.3,0,0.4-0.1V34c0.2-0.5,0.4-0.7,0.8-0.7C106.7,33.3,106.8,33.3,107,33.3z"/>
		<path class="st3" d="M108.6,33.3v0.6c0.2-0.4,0.5-0.6,0.9-0.6c0.5,0,0.9,0.3,1.1,0.8c0.2,0.4,0.3,0.9,0.3,1.4
			c0,0.8-0.2,1.4-0.6,1.9c-0.3,0.3-0.6,0.5-1.1,0.5c-0.1,0-0.2,0-0.3,0l-0.2-0.9c0.1,0,0.1,0,0.2,0c0.4,0,0.7-0.4,0.7-1.3
			c0-0.9-0.2-1.4-0.6-1.4c-0.3,0-0.5,0.3-0.5,1v3.1c0,0.4,0,0.6,0,0.6c0,0.2,0.1,0.4,0.2,0.6h-1.7c0.1-0.2,0.2-0.4,0.2-0.6
			c0-0.1,0-0.3,0-0.6v-3.7c0-0.4,0-0.6,0-0.6c0-0.2-0.1-0.4-0.2-0.6h1C108.3,33.4,108.5,33.4,108.6,33.3z"/>
		<path class="st3" d="M113.3,33.3c0.6,0,1.1,0.2,1.4,0.7c0.3,0.4,0.5,0.9,0.5,1.5c0,0.7-0.2,1.2-0.5,1.6c-0.4,0.5-0.9,0.7-1.5,0.7
			c-0.6,0-1.1-0.2-1.4-0.7c-0.3-0.4-0.5-0.9-0.5-1.5c0-0.7,0.2-1.2,0.5-1.6C112.2,33.5,112.7,33.3,113.3,33.3z M112.9,34.2
			c-0.3,0.1-0.4,0.3-0.4,0.7c0,0.2,0,0.4,0.1,0.6c0.2,0.9,0.5,1.4,0.9,1.4c0.2,0,0.3-0.1,0.4-0.2s0.2-0.2,0.2-0.4
			c0-0.2,0-0.5-0.1-0.8c-0.2-0.9-0.5-1.4-0.9-1.4C113,34.2,112.9,34.2,112.9,34.2z"/>
		<path class="st3" d="M118,33.3v1.2c-0.2-0.1-0.3-0.1-0.4-0.1c-0.2,0-0.4,0.1-0.5,0.2c-0.1,0.1-0.1,0.3-0.1,0.5v1.3
			c0,0.4,0,0.6,0,0.6c0,0.2,0.1,0.4,0.2,0.6h-1.7c0.1-0.2,0.2-0.4,0.2-0.6c0-0.1,0-0.3,0-0.6v-1.9c0-0.4,0-0.6,0-0.6
			c0-0.2-0.1-0.4-0.2-0.6h0.9c0.1,0,0.3,0,0.4-0.1V34c0.2-0.5,0.4-0.7,0.8-0.7C117.7,33.3,117.8,33.3,118,33.3z"/>
		<path class="st3" d="M121.8,37l-0.3,0.8c-0.1,0-0.2,0-0.2,0c-0.4,0-0.7-0.1-1-0.4c-0.2-0.3-0.3-0.6-0.3-1.1v-0.6
			c-0.1,0.1-0.2,0.1-0.3,0.2c-0.2,0.1-0.4,0.3-0.4,0.6c0,0.1,0,0.3,0.1,0.4c0.1,0.1,0.2,0.2,0.3,0.2c0,0,0.1,0,0.2,0l-0.3,0.8
			c-0.1,0-0.2,0-0.3,0c-0.4,0-0.7-0.1-0.9-0.4c-0.2-0.2-0.3-0.5-0.3-0.9c0-0.6,0.2-0.9,0.6-1.2c0.1-0.1,0.4-0.2,0.8-0.3
			c0.3-0.1,0.5-0.3,0.5-0.5c0-0.1,0-0.2-0.1-0.3s-0.2-0.1-0.3-0.1c-0.3,0-0.6,0.1-0.9,0.3l0.3-1.1c0.3-0.1,0.6-0.1,0.9-0.1
			c0.9,0,1.3,0.6,1.3,1.7v1c0,0.3,0,0.6,0.1,0.7C121.4,36.9,121.5,37,121.8,37z"/>
		<path class="st3" d="M124.1,37l-0.3,0.8c-0.2,0-0.4,0.1-0.5,0.1c-0.4,0-0.7-0.1-0.9-0.4c-0.1-0.2-0.2-0.6-0.2-1v-2.1h-0.4v-0.7
			c0.3,0,0.6-0.2,0.8-0.6c0.2-0.3,0.3-0.6,0.3-1h0.5v1.3h0.8v1.1c-0.1-0.1-0.2-0.2-0.2-0.2c-0.1,0-0.2-0.1-0.3-0.1h-0.3v1.9
			C123.3,36.7,123.6,37,124.1,37L124.1,37z"/>
		<path class="st3" d="M126,37.7h-1.7c0.1-0.2,0.2-0.4,0.2-0.6c0-0.1,0-0.3,0-0.6v-1.9c0-0.4,0-0.6,0-0.6c0-0.2-0.1-0.4-0.2-0.6h1
			c0.1,0,0.3,0,0.4-0.1v3.2c0,0.4,0,0.6,0,0.6C125.8,37.3,125.9,37.5,126,37.7z M125.2,31.3c0.2,0,0.4,0.1,0.5,0.3
			c0.1,0.2,0.2,0.4,0.2,0.6c0,0.2-0.1,0.4-0.2,0.6c-0.1,0.2-0.3,0.3-0.5,0.3c-0.2,0-0.4-0.1-0.5-0.3c-0.1-0.2-0.2-0.4-0.2-0.6
			c0-0.2,0.1-0.4,0.2-0.6C124.8,31.4,124.9,31.3,125.2,31.3z"/>
		<path class="st3" d="M128.4,33.3c0.6,0,1.1,0.2,1.4,0.7c0.3,0.4,0.5,0.9,0.5,1.5c0,0.7-0.2,1.2-0.5,1.6c-0.4,0.5-0.9,0.7-1.5,0.7
			c-0.6,0-1.1-0.2-1.4-0.7c-0.3-0.4-0.5-0.9-0.5-1.5c0-0.7,0.2-1.2,0.5-1.6C127.2,33.5,127.7,33.3,128.4,33.3z M128,34.2
			c-0.3,0.1-0.4,0.3-0.4,0.7c0,0.2,0,0.4,0.1,0.6c0.2,0.9,0.5,1.4,0.9,1.4c0.2,0,0.3-0.1,0.4-0.2s0.2-0.2,0.2-0.4
			c0-0.2,0-0.5-0.1-0.8c-0.2-0.9-0.5-1.4-0.9-1.4C128.1,34.2,128,34.2,128,34.2z"/>
		<path class="st3" d="M132,33.3v0.5c0.3-0.3,0.5-0.5,0.9-0.5c0.4,0,0.6,0.1,0.9,0.4c0.1,0.2,0.2,0.4,0.3,0.6c0,0.2,0,0.4,0,0.7v1.5
			c0,0.4,0,0.6,0,0.6c0,0.2,0.1,0.4,0.2,0.6h-1.7c0.1-0.2,0.2-0.4,0.2-0.6c0-0.1,0-0.3,0-0.6V35c0-0.5-0.1-0.7-0.4-0.7
			c-0.3,0-0.4,0.2-0.4,0.7v1.5c0,0.4,0,0.6,0,0.6c0,0.2,0.1,0.4,0.2,0.6h-1.7c0.1-0.2,0.2-0.4,0.2-0.6c0-0.1,0-0.3,0-0.6v-1.9
			c0-0.4,0-0.6,0-0.6c0-0.2-0.1-0.4-0.2-0.6h0.9C131.7,33.4,131.9,33.4,132,33.3z"/>
	</g>
</g>
<g id="WetStone">
	<rect x="42" y="7.8" class="st1" width="98.2" height="20.3"/>
	<g class="st2">
		<path class="st3" d="M49.9,8.2h4.6c-0.1,0.5-0.1,0.8-0.1,1c0,0.4,0.1,1.1,0.3,2l2.2,10.4l2-9.4c0.2-0.7,0.2-1.3,0.2-1.6
			c0-0.9-0.3-1.7-0.9-2.4H62l-4.4,19.6c-1.3-0.4-2.3-1-3-1.9c-0.6-0.8-1-1.9-1.3-3.4L52,16.3l-2.2,11.5c-1.4-0.4-2.5-1.1-3.2-2.3
			c-0.5-0.8-0.9-2.1-1.3-3.8l-2.1-10.1C43,10,42.5,8.8,41.9,8.2h4.7c0,0.4,0.1,1,0.3,1.8L49,21.5l1.7-8.9c0.1-0.5,0.1-0.9,0.1-1.3
			C50.9,10.3,50.5,9.3,49.9,8.2z"/>
		<path class="st3" d="M72.8,22.8L72,25.9c-1,0.6-2.2,0.9-3.6,0.9c-1.9,0-3.4-0.7-4.5-2c-1-1.2-1.4-2.8-1.4-4.8
			c0-1.8,0.4-3.4,1.3-4.6c1-1.4,2.4-2.1,4.1-2.1c1.1,0,2,0.3,2.8,1c0.7,0.6,1.2,1.5,1.5,2.6c0.2,0.8,0.3,1.8,0.4,3.2h-6.4
			c0,1,0.1,1.8,0.4,2.3c0.5,1.1,1.4,1.7,2.6,1.7C70.3,24.1,71.4,23.7,72.8,22.8z M66.4,17.7h2.7c-0.1-1.4-0.5-2-1.3-2
			C67.1,15.7,66.6,16.4,66.4,17.7z"/>
		<path class="st3" d="M80.1,24.2l-0.9,2.4c-0.6,0.1-1.1,0.2-1.6,0.2c-1.3,0-2.1-0.4-2.7-1.3c-0.4-0.7-0.6-1.7-0.6-3v-6.3h-1.2v-1.9
			c1-0.1,1.8-0.7,2.4-1.7c0.5-0.8,0.8-1.8,0.9-2.9h1.4v4h2.2V17c-0.3-0.3-0.5-0.6-0.6-0.6c-0.2-0.1-0.4-0.2-0.8-0.2h-0.9v5.5
			c0,1.7,0.7,2.5,2.1,2.5H80.1z"/>
		<path class="st3" d="M81.4,25.8l-0.7-4C82,23.3,83.4,24,85,24c0.6,0,1.1-0.2,1.5-0.5S87,22.6,87,22c0-0.6-0.2-1.2-0.7-1.6
			c-0.2-0.2-0.7-0.6-1.5-1.1c-0.8-0.5-1.3-0.9-1.5-1c-0.5-0.4-1-0.8-1.3-1.3c-0.8-1-1.2-2.2-1.2-3.7c0-1.6,0.4-2.9,1.3-3.9
			c0.9-1,2.1-1.6,3.7-1.6c1.2,0,2.3,0.3,3.4,0.8v3.2c-1-0.8-1.9-1.2-2.8-1.2c-0.5,0-1,0.2-1.3,0.5s-0.5,0.7-0.5,1.3
			c0,0.5,0.2,0.9,0.6,1.3c0.2,0.2,0.6,0.5,1.2,0.9c1.4,0.8,2.4,1.6,3,2.4c0.9,1.1,1.3,2.4,1.3,3.9c0,1.8-0.5,3.2-1.4,4.3
			c-1,1.1-2.4,1.6-4.2,1.6C84,26.8,82.7,26.5,81.4,25.8z"/>
		<path class="st3" d="M98.4,24.2l-0.9,2.4c-0.6,0.1-1.1,0.2-1.6,0.2c-1.3,0-2.1-0.4-2.7-1.3c-0.4-0.7-0.6-1.7-0.6-3v-6.3h-1.2v-1.9
			c1-0.1,1.8-0.7,2.4-1.7c0.5-0.8,0.8-1.8,0.9-2.9h1.4v4h2.2V17c-0.3-0.3-0.5-0.6-0.6-0.6c-0.2-0.1-0.4-0.2-0.8-0.2h-0.9v5.5
			c0,1.7,0.7,2.5,2.1,2.5H98.4z"/>
		<path class="st3" d="M105,13.3c1.7,0,3.1,0.7,4.2,2.1c0.9,1.3,1.4,2.8,1.4,4.6c0,2-0.5,3.5-1.5,4.8c-1.1,1.4-2.5,2-4.4,2
			c-1.8,0-3.2-0.7-4.2-2.1c-0.9-1.2-1.3-2.7-1.3-4.6c0-2,0.5-3.6,1.4-4.8C101.6,14,103.1,13.3,105,13.3z M103.8,16.1
			c-0.8,0.2-1.3,0.9-1.3,2.1c0,0.5,0.1,1.1,0.2,1.8c0.7,2.7,1.6,4,2.8,4c0.5,0,0.8-0.2,1.1-0.5c0.3-0.3,0.5-0.7,0.5-1.1
			c0.1-0.6,0-1.4-0.2-2.4c-0.7-2.7-1.6-4-2.8-4C104,16,103.9,16.1,103.8,16.1z"/>
		<path class="st3" d="M115.8,13.2v1.5c0.7-1,1.6-1.5,2.6-1.5c1.1,0,1.9,0.4,2.6,1.2c0.4,0.5,0.7,1.2,0.8,1.9
			c0.1,0.5,0.1,1.2,0.1,2.1v4.4c0,1.1,0,1.7,0,1.9c0.1,0.6,0.3,1.2,0.7,1.7h-4.9c0.4-0.5,0.6-1.1,0.7-1.7c0-0.2,0-0.8,0-1.9v-4.5
			c0-1.5-0.4-2.2-1.3-2.2c-0.8,0-1.2,0.7-1.2,2.2v4.5c0,1.1,0,1.7,0,1.9c0.1,0.6,0.3,1.2,0.6,1.7h-4.9c0.4-0.5,0.6-1.1,0.7-1.7
			c0-0.2,0-0.8,0-1.9v-5.6c0-1.1,0-1.7,0-1.9c-0.1-0.6-0.3-1.2-0.6-1.7h2.8C114.9,13.7,115.4,13.5,115.8,13.2z"/>
		<path class="st3" d="M134,22.8l-0.8,3.1c-1,0.6-2.2,0.9-3.6,0.9c-1.9,0-3.4-0.7-4.5-2c-1-1.2-1.4-2.8-1.4-4.8
			c0-1.8,0.4-3.4,1.3-4.6c1-1.4,2.4-2.1,4.1-2.1c1.1,0,2,0.3,2.8,1c0.7,0.6,1.2,1.5,1.5,2.6c0.2,0.8,0.3,1.8,0.4,3.2h-6.4
			c0,1,0.1,1.8,0.4,2.3c0.5,1.1,1.4,1.7,2.6,1.7C131.5,24.1,132.6,23.7,134,22.8z M127.6,17.7h2.7c-0.1-1.4-0.5-2-1.3-2
			C128.3,15.7,127.8,16.4,127.6,17.7z"/>
	</g>
</g>
</svg>
